<svg width="24" height="24" viewBox="0 0 24 24" fill="none" xmlns="http://www.w3.org/2000/svg">
<path d="M9.02828 21.6898L11.3583 19.7298C11.7083 19.4298 12.2883 19.4298 12.6383 19.7298L14.9683 21.6898C15.5083 21.9598 16.1683 21.6898 16.3683 21.1098L16.8083 19.7798C16.9183 19.4598 16.8083 18.9898 16.5683 18.7498L14.2983 16.4698C14.1283 16.3098 13.9983 15.9898 13.9983 15.7598V12.9098C13.9983 12.4898 14.3083 12.2898 14.6983 12.4498L19.6083 14.5698C20.3783 14.8998 21.0083 14.4898 21.0083 13.6498V12.3598C21.0083 11.6898 20.5083 10.9198 19.8883 10.6598L14.2983 8.24977C14.1383 8.17977 13.9983 7.96977 13.9983 7.78977V4.78977C13.9983 3.84977 13.3083 2.73977 12.4683 2.30977C12.1683 2.15977 11.8183 2.15977 11.5183 2.30977C10.6783 2.73977 9.98828 3.85977 9.98828 4.79977V7.79977C9.98828 7.97977 9.84828 8.18977 9.68828 8.25977L4.10828 10.6698C3.48828 10.9198 2.98828 11.6898 2.98828 12.3598V13.6498C2.98828 14.4898 3.61828 14.8998 4.38828 14.5698L9.29828 12.4498C9.67828 12.2798 9.99828 12.4898 9.99828 12.9098V15.7598C9.99828 15.9898 9.86828 16.3098 9.70828 16.4698L7.43828 18.7498C7.19828 18.9898 7.08828 19.4498 7.19828 19.7798L7.63828 21.1098C7.81828 21.6898 8.47828 21.9698 9.02828 21.6898Z" stroke="#245EC1" stroke-width="1.5" stroke-linecap="round" stroke-linejoin="round"/>
</svg>
