<svg width="30" height="30" viewBox="0 0 30 30" fill="none" xmlns="http://www.w3.org/2000/svg">
<path d="M15.0001 9.8623L13.6626 12.1873C13.3626 12.6998 13.6126 13.1248 14.2001 13.1248H15.7876C16.3876 13.1248 16.6251 13.5498 16.3251 14.0623L15.0001 16.3873" stroke="#245EC1" stroke-width="1.5" stroke-linecap="round" stroke-linejoin="round"/>
<path d="M10.3752 22.5502V21.1002C7.5002 19.3627 5.1377 15.9752 5.1377 12.3752C5.1377 6.18772 10.8252 1.33772 17.2502 2.73772C20.0752 3.36272 22.5502 5.23772 23.8377 7.82522C26.4502 13.0752 23.7002 18.6502 19.6627 21.0877V22.5377C19.6627 22.9002 19.8002 23.7377 18.4627 23.7377H11.5752C10.2002 23.7502 10.3752 23.2127 10.3752 22.5502Z" stroke="#245EC1" stroke-width="1.5" stroke-linecap="round" stroke-linejoin="round"/>
<path d="M10.625 27.5C13.4875 26.6875 16.5125 26.6875 19.375 27.5" stroke="#245EC1" stroke-width="1.5" stroke-linecap="round" stroke-linejoin="round"/>
</svg>
