<svg width="30" height="30" viewBox="0 0 30 30" fill="none" xmlns="http://www.w3.org/2000/svg">
<path d="M9.34961 22.9371L13.2246 25.9371C13.7246 26.4371 14.8496 26.6871 15.5996 26.6871H20.3496C21.8496 26.6871 23.4746 25.5621 23.8496 24.0621L26.8496 14.9371C27.4746 13.1871 26.3496 11.6871 24.4746 11.6871H19.4746C18.7246 11.6871 18.0996 11.0621 18.2246 10.1871L18.8496 6.18709C19.0996 5.06209 18.3496 3.81209 17.2246 3.43709C16.2246 3.06209 14.9746 3.56209 14.4746 4.31209L9.34961 11.9371" stroke="#245EC1" stroke-width="1.5" stroke-miterlimit="10"/>
<path d="M2.97461 22.9375V10.6875C2.97461 8.9375 3.72461 8.3125 5.47461 8.3125H6.72461C8.47461 8.3125 9.22461 8.9375 9.22461 10.6875V22.9375C9.22461 24.6875 8.47461 25.3125 6.72461 25.3125H5.47461C3.72461 25.3125 2.97461 24.6875 2.97461 22.9375Z" stroke="#245EC1" stroke-width="1.5" stroke-linecap="round" stroke-linejoin="round"/>
</svg>
