<svg width="30" height="30" viewBox="0 0 30 30" fill="none" xmlns="http://www.w3.org/2000/svg">
<path d="M22.4996 8.95C22.4246 8.9375 22.3371 8.9375 22.2621 8.95C20.5371 8.8875 19.1621 7.475 19.1621 5.725C19.1621 3.9375 20.5996 2.5 22.3871 2.5C24.1746 2.5 25.6121 3.95 25.6121 5.725C25.5996 7.475 24.2246 8.8875 22.4996 8.95Z" stroke="#245EC1" stroke-width="1.5" stroke-linecap="round" stroke-linejoin="round"/>
<path d="M21.2123 18.0502C22.9248 18.3377 24.8123 18.0377 26.1373 17.1502C27.8998 15.9752 27.8998 14.0502 26.1373 12.8752C24.7998 11.9877 22.8873 11.6877 21.1748 11.9877" stroke="#245EC1" stroke-width="1.5" stroke-linecap="round" stroke-linejoin="round"/>
<path d="M7.46211 8.95C7.53711 8.9375 7.62461 8.9375 7.69961 8.95C9.42461 8.8875 10.7996 7.475 10.7996 5.725C10.7996 3.9375 9.36211 2.5 7.57461 2.5C5.78711 2.5 4.34961 3.95 4.34961 5.725C4.36211 7.475 5.73711 8.8875 7.46211 8.95Z" stroke="#245EC1" stroke-width="1.5" stroke-linecap="round" stroke-linejoin="round"/>
<path d="M8.7498 18.0502C7.0373 18.3377 5.1498 18.0377 3.8248 17.1502C2.0623 15.9752 2.0623 14.0502 3.8248 12.8752C5.1623 11.9877 7.0748 11.6877 8.7873 11.9877" stroke="#245EC1" stroke-width="1.5" stroke-linecap="round" stroke-linejoin="round"/>
<path d="M15.0006 18.2879C14.9256 18.2754 14.8381 18.2754 14.7631 18.2879C13.0381 18.2254 11.6631 16.8129 11.6631 15.0629C11.6631 13.2754 13.1006 11.8379 14.8881 11.8379C16.6756 11.8379 18.1131 13.2879 18.1131 15.0629C18.1006 16.8129 16.7256 18.2379 15.0006 18.2879Z" stroke="#245EC1" stroke-width="1.5" stroke-linecap="round" stroke-linejoin="round"/>
<path d="M11.3629 22.2252C9.60039 23.4002 9.60039 25.3252 11.3629 26.5002C13.3629 27.8377 16.6379 27.8377 18.6379 26.5002C20.4004 25.3252 20.4004 23.4002 18.6379 22.2252C16.6504 20.9002 13.3629 20.9002 11.3629 22.2252Z" stroke="#245EC1" stroke-width="1.5" stroke-linecap="round" stroke-linejoin="round"/>
</svg>
