<svg width="24" height="24" viewBox="0 0 24 24" fill="none" xmlns="http://www.w3.org/2000/svg">
<path d="M17 21H7C3 21 2 20 2 16V8C2 4 3 3 7 3H17C21 3 22 4 22 8V16C22 20 21 21 17 21Z" stroke="#245EC1" stroke-width="1.5" stroke-linecap="round" stroke-linejoin="round"/>
<path d="M14 8H19" stroke="#245EC1" stroke-width="1.5" stroke-linecap="round" stroke-linejoin="round"/>
<path d="M15 12H19" stroke="#245EC1" stroke-width="1.5" stroke-linecap="round" stroke-linejoin="round"/>
<path d="M17 16H19" stroke="#245EC1" stroke-width="1.5" stroke-linecap="round" stroke-linejoin="round"/>
<path d="M8.49994 11.2899C9.49958 11.2899 10.3099 10.4796 10.3099 9.47992C10.3099 8.48029 9.49958 7.66992 8.49994 7.66992C7.50031 7.66992 6.68994 8.48029 6.68994 9.47992C6.68994 10.4796 7.50031 11.2899 8.49994 11.2899Z" stroke="#245EC1" stroke-width="1.5" stroke-linecap="round" stroke-linejoin="round"/>
<path d="M12 15.7575C11.86 14.3075 10.71 13.1675 9.26 13.0375C8.76 12.9875 8.25 12.9875 7.74 13.0375C6.29 13.1775 5.14 14.3075 5 15.7575" stroke="#245EC1" stroke-width="1.5" stroke-linecap="round" stroke-linejoin="round"/>
</svg>
