<svg width="30" height="30" viewBox="0 0 30 30" fill="none" xmlns="http://www.w3.org/2000/svg">
<path d="M26.3502 10.725V19.275C26.3502 20.675 25.6002 21.9751 24.3877 22.6876L16.9627 26.975C15.7502 27.675 14.2502 27.675 13.0252 26.975L5.6002 22.6876C4.3877 21.9876 3.6377 20.6875 3.6377 19.275V10.725C3.6377 9.32504 4.3877 8.02499 5.6002 7.31249L13.0252 3.025C14.2377 2.325 15.7377 2.325 16.9627 3.025L24.3877 7.31249C25.6002 8.02499 26.3502 9.31254 26.3502 10.725Z" stroke="#245EC1" stroke-width="1.5" stroke-linecap="round" stroke-linejoin="round"/>
<path d="M15.0004 13.7498C16.6089 13.7498 17.9129 12.4458 17.9129 10.8372C17.9129 9.22872 16.6089 7.9248 15.0004 7.9248C13.3919 7.9248 12.0879 9.22872 12.0879 10.8372C12.0879 12.4458 13.3919 13.7498 15.0004 13.7498Z" stroke="#245EC1" stroke-width="1.5" stroke-linecap="round" stroke-linejoin="round"/>
<path d="M20 20.8249C20 18.5749 17.7625 16.75 15 16.75C12.2375 16.75 10 18.5749 10 20.8249" stroke="#245EC1" stroke-width="1.5" stroke-linecap="round" stroke-linejoin="round"/>
</svg>
