<svg width="24" height="24" viewBox="0 0 24 24" fill="none" xmlns="http://www.w3.org/2000/svg">
<path d="M5.59998 8.38086H4C3.45 8.38086 3 8.83086 3 9.38086V18.0009C3 18.5509 3.45 19.0009 4 19.0009H5.59998C6.14998 19.0009 6.59998 18.5509 6.59998 18.0009V9.38086C6.59998 8.83086 6.14998 8.38086 5.59998 8.38086Z" stroke="#19243B" stroke-width="1.3" stroke-linecap="round" stroke-linejoin="round"/>
<path d="M12.7992 5.18945H11.1992C10.6492 5.18945 10.1992 5.63945 10.1992 6.18945V17.9995C10.1992 18.5495 10.6492 18.9995 11.1992 18.9995H12.7992C13.3492 18.9995 13.7992 18.5495 13.7992 17.9995V6.18945C13.7992 5.63945 13.3492 5.18945 12.7992 5.18945Z" stroke="#19243B" stroke-width="1.3" stroke-linecap="round" stroke-linejoin="round"/>
<path d="M19.9984 2H18.3984C17.8484 2 17.3984 2.45 17.3984 3V18C17.3984 18.55 17.8484 19 18.3984 19H19.9984C20.5484 19 20.9984 18.55 20.9984 18V3C20.9984 2.45 20.5484 2 19.9984 2Z" stroke="#19243B" stroke-width="1.3" stroke-linecap="round" stroke-linejoin="round"/>
</svg>
