<svg width="25" height="24" viewBox="0 0 25 24" fill="none" xmlns="http://www.w3.org/2000/svg">
<path d="M9.07031 22H15.0703C20.0703 22 22.0703 20 22.0703 15V9C22.0703 4 20.0703 2 15.0703 2H9.07031C4.07031 2 2.07031 4 2.07031 9V15C2.07031 20 4.07031 22 9.07031 22Z" stroke="#19243B" stroke-width="1.5" stroke-linecap="round" stroke-linejoin="round"/>
<path d="M9.17188 11.9995V10.5195C9.17188 8.6095 10.5219 7.8395 12.1719 8.7895L13.4519 9.5295L14.7319 10.2695C16.3819 11.2195 16.3819 12.7795 14.7319 13.7295L13.4519 14.4695L12.1719 15.2095C10.5219 16.1595 9.17188 15.3795 9.17188 13.4795V11.9995Z" stroke="#19243B" stroke-width="1.5" stroke-miterlimit="10" stroke-linecap="round" stroke-linejoin="round"/>
</svg>
